<svg id="user" xmlns="http://www.w3.org/2000/svg" width="14.688" height="17.442" viewBox="0 0 14.688 17.442">
  <path id="Trazado_86" data-name="Trazado 86" d="M7,7.59a4.59,4.59,0,1,1,4.59,4.59A4.59,4.59,0,0,1,7,7.59Zm4.59,2.754A2.754,2.754,0,1,0,8.836,7.59,2.754,2.754,0,0,0,11.59,10.344Z" transform="translate(-4.246 -3)" fill="#979797"/>
  <path id="Trazado_87" data-name="Trazado 87" d="M6.151,16.151A7.344,7.344,0,0,0,4,21.344H5.836a5.508,5.508,0,0,1,11.016,0h1.836A7.344,7.344,0,0,0,6.151,16.151Z" transform="translate(-4 -3.902)" fill="#979797"/>
</svg>
