<svg xmlns="http://www.w3.org/2000/svg" width="204.845" height="21.241" viewBox="0 0 204.845 21.241">
  <g id="Grupo_248" data-name="Grupo 248" transform="translate(-869 -453.453)">
    <path id="Trazado_58" data-name="Trazado 58" d="M1.59,43.363A1.591,1.591,0,0,0,0,44.953V62.614a1.59,1.59,0,1,0,3.179,0V44.953a1.592,1.592,0,0,0-1.59-1.59" transform="translate(869 410.464)" fill="#979797"/>
    <path id="Trazado_59" data-name="Trazado 59" d="M71.02,43.363H54.657a2.892,2.892,0,0,0-2.888,2.887V62.614a1.59,1.59,0,0,0,3.181,0V46.544H71.02a1.59,1.59,0,0,0,0-3.181" transform="translate(882.497 410.464)" fill="#979797"/>
    <path id="Trazado_60" data-name="Trazado 60" d="M66.95,51.8H59.019a1.59,1.59,0,0,0,0,3.179H66.95a1.59,1.59,0,0,0,0-3.179" transform="translate(883.972 412.663)" fill="#979797"/>
    <path id="Trazado_61" data-name="Trazado 61" d="M84.25,43.363a1.591,1.591,0,0,0-1.59,1.59V62.614a1.59,1.59,0,1,0,3.179,0V44.953a1.592,1.592,0,0,0-1.59-1.59" transform="translate(890.55 410.464)" fill="#979797"/>
    <path id="Trazado_62" data-name="Trazado 62" d="M131.5,43.363a1.592,1.592,0,0,0-1.59,1.59V62.614a1.59,1.59,0,1,0,3.18,0V44.953a1.592,1.592,0,0,0-1.59-1.59" transform="translate(902.868 410.464)" fill="#979797"/>
    <path id="Trazado_63" data-name="Trazado 63" d="M33.993,43.363a1.591,1.591,0,0,0-1.59,1.59v6.965a1.59,1.59,0,1,0,3.179,0V44.953a1.592,1.592,0,0,0-1.59-1.59" transform="translate(877.447 410.464)" fill="#979797"/>
    <path id="Trazado_64" data-name="Trazado 64" d="M27.322,44.885l-.064-.088a4.458,4.458,0,0,0-7.976,2.737V62.692a1.59,1.59,0,0,0,3.179,0V47.534A1.28,1.28,0,0,1,24.71,46.7L36.1,63.605a1.59,1.59,0,1,0,2.637-1.776Z" transform="translate(874.027 410.386)" fill="#979797"/>
    <path id="Trazado_65" data-name="Trazado 65" d="M115.185,53.509a1.592,1.592,0,0,0,1.59-1.59V44.954a1.59,1.59,0,1,0-3.179,0v6.965a1.592,1.592,0,0,0,1.59,1.59" transform="translate(898.615 410.464)" fill="#979797"/>
    <path id="Trazado_66" data-name="Trazado 66" d="M108.514,44.885l-.064-.088a4.459,4.459,0,0,0-7.978,2.737V62.692a1.59,1.59,0,0,0,3.181,0V47.534A1.279,1.279,0,0,1,105.9,46.7l11.385,16.906a1.59,1.59,0,1,0,2.639-1.776Z" transform="translate(895.193 410.386)" fill="#979797"/>
    <path id="Trazado_67" data-name="Trazado 67" d="M158.129,53.289a1.591,1.591,0,0,0-2.716,1.125,1.573,1.573,0,0,0,.466,1.123l5.735,5.735a1.59,1.59,0,0,0,2.249-2.249Z" transform="translate(909.517 412.93)" fill="#979797"/>
    <path id="Trazado_68" data-name="Trazado 68" d="M152.154,51.812a1.59,1.59,0,1,0,2.248-2.249l-5.734-5.735a1.59,1.59,0,1,0-2.249,2.249Z" transform="translate(907.051 410.464)" fill="#979797"/>
    <path id="Trazado_69" data-name="Trazado 69" d="M152.154,53.289l-5.735,5.734a1.59,1.59,0,0,0,2.249,2.249l5.734-5.735a1.587,1.587,0,0,0,0-2.248,1.59,1.59,0,0,0-2.248,0" transform="translate(907.051 412.93)" fill="#979797"/>
    <path id="Trazado_70" data-name="Trazado 70" d="M157,52.277a1.584,1.584,0,0,0,1.125-.465l5.734-5.735a1.59,1.59,0,1,0-2.249-2.249l-5.734,5.735A1.589,1.589,0,0,0,157,52.277" transform="translate(909.517 410.464)" fill="#979797"/>
  </g>
</svg>
